<svg width="16" height="16" viewBox="0 0 16 16" xmlns="http://www.w3.org/2000/svg">
  <defs>
    <linearGradient id="favicon16Gradient" x1="0%" y1="0%" x2="100%" y2="100%">
      <stop offset="0%" stop-color="#10b981" />
      <stop offset="50%" stop-color="#06b6d4" />
      <stop offset="100%" stop-color="#3b82f6" />
    </linearGradient>
    <linearGradient id="favicon16NodeGradient" x1="0%" y1="0%" x2="100%" y2="100%">
      <stop offset="0%" stop-color="#10b981" />
      <stop offset="100%" stop-color="#059669" />
    </linearGradient>
    <linearGradient id="favicon16ConnectionGradient" x1="0%" y1="0%" x2="100%" y2="100%">
      <stop offset="0%" stop-color="#10b981" />
      <stop offset="100%" stop-color="#06b6d4" />
    </linearGradient>
  </defs>

  <!-- Background -->
  <rect width="16" height="16" fill="#0f172a" rx="3"/>

  <!-- Neural Network Connections -->
  <g opacity="0.7">
    <!-- Layer 1 to Center connections -->
    <path d="M2 4 Q5 6 8 8" stroke="url(#favicon16ConnectionGradient)" stroke-width="0.8" fill="none" />
    <path d="M2 8 L8 8" stroke="url(#favicon16ConnectionGradient)" stroke-width="0.8" />
    <path d="M2 12 Q5 10 8 8" stroke="url(#favicon16ConnectionGradient)" stroke-width="0.8" fill="none" />
    
    <!-- Center to Layer 2 connections -->
    <path d="M8 8 Q11 6 14 4" stroke="url(#favicon16ConnectionGradient)" stroke-width="0.8" fill="none" />
    <path d="M8 8 L14 8" stroke="url(#favicon16ConnectionGradient)" stroke-width="0.8" />
    <path d="M8 8 Q11 10 14 12" stroke="url(#favicon16ConnectionGradient)" stroke-width="0.8" fill="none" />
  </g>

  <!-- Input Layer Nodes -->
  <circle cx="2" cy="4" r="1" fill="url(#favicon16NodeGradient)" opacity="0.8"/>
  <circle cx="2" cy="8" r="1" fill="url(#favicon16NodeGradient)" opacity="0.8"/>
  <circle cx="2" cy="12" r="1" fill="url(#favicon16NodeGradient)" opacity="0.8"/>

  <!-- Central Router Node -->
  <circle cx="8" cy="8" r="2" fill="url(#favicon16Gradient)" stroke="#10b981" stroke-width="0.5"/>
  <circle cx="8" cy="8" r="0.8" fill="#ffffff" opacity="0.9"/>

  <!-- Output Layer Nodes -->
  <circle cx="14" cy="4" r="1" fill="#3b82f6"/>
  <circle cx="14" cy="8" r="1" fill="#3b82f6"/>
  <circle cx="14" cy="12" r="1" fill="#3b82f6"/>
</svg>