<svg width="32" height="32" viewBox="0 0 32 32" xmlns="http://www.w3.org/2000/svg">
  <defs>
    <linearGradient id="faviconGradient" x1="0%" y1="0%" x2="100%" y2="100%">
      <stop offset="0%" stop-color="#10b981" />
      <stop offset="50%" stop-color="#06b6d4" />
      <stop offset="100%" stop-color="#3b82f6" />
    </linearGradient>
    <linearGradient id="faviconNodeGradient" x1="0%" y1="0%" x2="100%" y2="100%">
      <stop offset="0%" stop-color="#10b981" />
      <stop offset="100%" stop-color="#059669" />
    </linearGradient>
    <linearGradient id="faviconConnectionGradient" x1="0%" y1="0%" x2="100%" y2="100%">
      <stop offset="0%" stop-color="#10b981" />
      <stop offset="100%" stop-color="#06b6d4" />
    </linearGradient>
    <filter id="glow" x="-50%" y="-50%" width="200%" height="200%">
      <feGaussianBlur stdDeviation="1" result="coloredBlur"/>
      <feMerge> 
        <feMergeNode in="coloredBlur"/>
        <feMergeNode in="SourceGraphic"/>
      </feMerge>
    </filter>
  </defs>

  <!-- Background -->
  <rect width="32" height="32" fill="#0f172a" rx="6"/>

  <!-- Neural Network Connections -->
  <g opacity="0.7" filter="url(#glow)">
    <!-- Layer 1 to Center connections -->
    <path d="M6 8 Q11 12 16 16" stroke="url(#faviconConnectionGradient)" stroke-width="1.5" fill="none" />
    <path d="M6 16 L16 16" stroke="url(#faviconConnectionGradient)" stroke-width="1.5" />
    <path d="M6 24 Q11 20 16 16" stroke="url(#faviconConnectionGradient)" stroke-width="1.5" fill="none" />
    
    <!-- Center to Layer 2 connections -->
    <path d="M16 16 Q21 12 26 8" stroke="url(#faviconConnectionGradient)" stroke-width="1.5" fill="none" />
    <path d="M16 16 L26 16" stroke="url(#faviconConnectionGradient)" stroke-width="1.5" />
    <path d="M16 16 Q21 20 26 24" stroke="url(#faviconConnectionGradient)" stroke-width="1.5" fill="none" />
  </g>

  <!-- Input Layer Nodes -->
  <g filter="url(#glow)">
    <circle cx="6" cy="8" r="2.5" fill="url(#faviconNodeGradient)"/>
    <circle cx="6" cy="16" r="2.5" fill="url(#faviconNodeGradient)"/>
    <circle cx="6" cy="24" r="2.5" fill="url(#faviconNodeGradient)"/>

    <!-- Central Router Node -->
    <circle cx="16" cy="16" r="5" fill="url(#faviconGradient)" stroke="#ffffff" stroke-width="1"/>
    <circle cx="16" cy="16" r="2" fill="#ffffff"/>

    <!-- Output Layer Nodes -->
    <circle cx="26" cy="8" r="2.5" fill="#3b82f6"/>
    <circle cx="26" cy="16" r="2.5" fill="#3b82f6"/>
    <circle cx="26" cy="24" r="2.5" fill="#3b82f6"/>
  </g>
</svg>